<?xml version="1.0" encoding="utf-8" standalone="no"?>
<!DOCTYPE svg PUBLIC "-//W3C//DTD SVG 1.1//EN"
  "http://www.w3.org/Graphics/SVG/1.1/DTD/svg11.dtd">
<svg xmlns:xlink="http://www.w3.org/1999/xlink" width="706.102061pt" height="419.936719pt" viewBox="0 0 706.102061 419.936719" xmlns="http://www.w3.org/2000/svg" version="1.1">
 <metadata>
  <rdf:RDF xmlns:dc="http://purl.org/dc/elements/1.1/" xmlns:cc="http://creativecommons.org/ns#" xmlns:rdf="http://www.w3.org/1999/02/22-rdf-syntax-ns#">
   <cc:Work>
    <dc:type rdf:resource="http://purl.org/dc/dcmitype/StillImage"/>
    <dc:date>2026-04-12T19:49:50.193975</dc:date>
    <dc:format>image/svg+xml</dc:format>
    <dc:creator>
     <cc:Agent>
      <dc:title>Matplotlib v3.10.8, https://matplotlib.org/</dc:title>
     </cc:Agent>
    </dc:creator>
   </cc:Work>
  </rdf:RDF>
 </metadata>
 <defs>
  <style type="text/css">*{stroke-linejoin: round; stroke-linecap: butt}</style>
 </defs>
 <g id="figure_1">
  <g id="patch_1">
   <path d="M 0 419.936719 
L 706.102061 419.936719 
L 706.102061 0 
L 0 0 
z
" style="fill: #ffffff"/>
  </g>
  <g id="axes_1">
   <g id="patch_2">
    <path d="M 85.809219 377.915625 
L 696.696462 377.915625 
L 696.696462 21.935625 
L 85.809219 21.935625 
z
" style="fill: #ffffff"/>
   </g>
   <g id="matplotlib.axis_1">
    <g id="xtick_1">
     <g id="line2d_1">
      <path d="M 85.809219 377.915625 
L 85.809219 21.935625 
" clip-path="url(#p8126a469de)" style="fill: none; stroke: #cccccc; stroke-linecap: round"/>
     </g>
     <g id="text_1">
      <!-- 0 -->
      <g style="fill: #262626" transform="translate(82.750703 395.289219) scale(0.11 -0.11)">
       <defs>
        <path id="ArialMT-30" d="M 266 2259 
Q 266 3072 433 3567 
Q 600 4063 929 4331 
Q 1259 4600 1759 4600 
Q 2128 4600 2406 4451 
Q 2684 4303 2865 4023 
Q 3047 3744 3150 3342 
Q 3253 2941 3253 2259 
Q 3253 1453 3087 958 
Q 2922 463 2592 192 
Q 2263 -78 1759 -78 
Q 1097 -78 719 397 
Q 266 969 266 2259 
z
M 844 2259 
Q 844 1131 1108 757 
Q 1372 384 1759 384 
Q 2147 384 2411 759 
Q 2675 1134 2675 2259 
Q 2675 3391 2411 3762 
Q 2147 4134 1753 4134 
Q 1366 4134 1134 3806 
Q 844 3388 844 2259 
z
" transform="scale(0.015625)"/>
       </defs>
       <use xlink:href="#ArialMT-30"/>
      </g>
     </g>
    </g>
    <g id="xtick_2">
     <g id="line2d_2">
      <path d="M 182.926344 377.915625 
L 182.926344 21.935625 
" clip-path="url(#p8126a469de)" style="fill: none; stroke: #cccccc; stroke-linecap: round"/>
     </g>
     <g id="text_2">
      <!-- 10 -->
      <g style="fill: #262626" transform="translate(176.809313 395.289219) scale(0.11 -0.11)">
       <defs>
        <path id="ArialMT-31" d="M 2384 0 
L 1822 0 
L 1822 3584 
Q 1619 3391 1289 3197 
Q 959 3003 697 2906 
L 697 3450 
Q 1169 3672 1522 3987 
Q 1875 4303 2022 4600 
L 2384 4600 
L 2384 0 
z
" transform="scale(0.015625)"/>
       </defs>
       <use xlink:href="#ArialMT-31"/>
       <use xlink:href="#ArialMT-30" transform="translate(55.615234 0)"/>
      </g>
     </g>
    </g>
    <g id="xtick_3">
     <g id="line2d_3">
      <path d="M 280.04347 377.915625 
L 280.04347 21.935625 
" clip-path="url(#p8126a469de)" style="fill: none; stroke: #cccccc; stroke-linecap: round"/>
     </g>
     <g id="text_3">
      <!-- 20 -->
      <g style="fill: #262626" transform="translate(273.926439 395.289219) scale(0.11 -0.11)">
       <defs>
        <path id="ArialMT-32" d="M 3222 541 
L 3222 0 
L 194 0 
Q 188 203 259 391 
Q 375 700 629 1000 
Q 884 1300 1366 1694 
Q 2113 2306 2375 2664 
Q 2638 3022 2638 3341 
Q 2638 3675 2398 3904 
Q 2159 4134 1775 4134 
Q 1369 4134 1125 3890 
Q 881 3647 878 3216 
L 300 3275 
Q 359 3922 746 4261 
Q 1134 4600 1788 4600 
Q 2447 4600 2831 4234 
Q 3216 3869 3216 3328 
Q 3216 3053 3103 2787 
Q 2991 2522 2730 2228 
Q 2469 1934 1863 1422 
Q 1356 997 1212 845 
Q 1069 694 975 541 
L 3222 541 
z
" transform="scale(0.015625)"/>
       </defs>
       <use xlink:href="#ArialMT-32"/>
       <use xlink:href="#ArialMT-30" transform="translate(55.615234 0)"/>
      </g>
     </g>
    </g>
    <g id="xtick_4">
     <g id="line2d_4">
      <path d="M 377.160596 377.915625 
L 377.160596 21.935625 
" clip-path="url(#p8126a469de)" style="fill: none; stroke: #cccccc; stroke-linecap: round"/>
     </g>
     <g id="text_4">
      <!-- 30 -->
      <g style="fill: #262626" transform="translate(371.043565 395.289219) scale(0.11 -0.11)">
       <defs>
        <path id="ArialMT-33" d="M 269 1209 
L 831 1284 
Q 928 806 1161 595 
Q 1394 384 1728 384 
Q 2125 384 2398 659 
Q 2672 934 2672 1341 
Q 2672 1728 2419 1979 
Q 2166 2231 1775 2231 
Q 1616 2231 1378 2169 
L 1441 2663 
Q 1497 2656 1531 2656 
Q 1891 2656 2178 2843 
Q 2466 3031 2466 3422 
Q 2466 3731 2256 3934 
Q 2047 4138 1716 4138 
Q 1388 4138 1169 3931 
Q 950 3725 888 3313 
L 325 3413 
Q 428 3978 793 4289 
Q 1159 4600 1703 4600 
Q 2078 4600 2393 4439 
Q 2709 4278 2876 4000 
Q 3044 3722 3044 3409 
Q 3044 3113 2884 2869 
Q 2725 2625 2413 2481 
Q 2819 2388 3044 2092 
Q 3269 1797 3269 1353 
Q 3269 753 2831 336 
Q 2394 -81 1725 -81 
Q 1122 -81 723 278 
Q 325 638 269 1209 
z
" transform="scale(0.015625)"/>
       </defs>
       <use xlink:href="#ArialMT-33"/>
       <use xlink:href="#ArialMT-30" transform="translate(55.615234 0)"/>
      </g>
     </g>
    </g>
    <g id="xtick_5">
     <g id="line2d_5">
      <path d="M 474.277721 377.915625 
L 474.277721 21.935625 
" clip-path="url(#p8126a469de)" style="fill: none; stroke: #cccccc; stroke-linecap: round"/>
     </g>
     <g id="text_5">
      <!-- 40 -->
      <g style="fill: #262626" transform="translate(468.16069 395.289219) scale(0.11 -0.11)">
       <defs>
        <path id="ArialMT-34" d="M 2069 0 
L 2069 1097 
L 81 1097 
L 81 1613 
L 2172 4581 
L 2631 4581 
L 2631 1613 
L 3250 1613 
L 3250 1097 
L 2631 1097 
L 2631 0 
L 2069 0 
z
M 2069 1613 
L 2069 3678 
L 634 1613 
L 2069 1613 
z
" transform="scale(0.015625)"/>
       </defs>
       <use xlink:href="#ArialMT-34"/>
       <use xlink:href="#ArialMT-30" transform="translate(55.615234 0)"/>
      </g>
     </g>
    </g>
    <g id="xtick_6">
     <g id="line2d_6">
      <path d="M 571.394847 377.915625 
L 571.394847 21.935625 
" clip-path="url(#p8126a469de)" style="fill: none; stroke: #cccccc; stroke-linecap: round"/>
     </g>
     <g id="text_6">
      <!-- 50 -->
      <g style="fill: #262626" transform="translate(565.277816 395.289219) scale(0.11 -0.11)">
       <defs>
        <path id="ArialMT-35" d="M 266 1200 
L 856 1250 
Q 922 819 1161 601 
Q 1400 384 1738 384 
Q 2144 384 2425 690 
Q 2706 997 2706 1503 
Q 2706 1984 2436 2262 
Q 2166 2541 1728 2541 
Q 1456 2541 1237 2417 
Q 1019 2294 894 2097 
L 366 2166 
L 809 4519 
L 3088 4519 
L 3088 3981 
L 1259 3981 
L 1013 2750 
Q 1425 3038 1878 3038 
Q 2478 3038 2890 2622 
Q 3303 2206 3303 1553 
Q 3303 931 2941 478 
Q 2500 -78 1738 -78 
Q 1113 -78 717 272 
Q 322 622 266 1200 
z
" transform="scale(0.015625)"/>
       </defs>
       <use xlink:href="#ArialMT-35"/>
       <use xlink:href="#ArialMT-30" transform="translate(55.615234 0)"/>
      </g>
     </g>
    </g>
    <g id="xtick_7">
     <g id="line2d_7">
      <path d="M 668.511973 377.915625 
L 668.511973 21.935625 
" clip-path="url(#p8126a469de)" style="fill: none; stroke: #cccccc; stroke-linecap: round"/>
     </g>
     <g id="text_7">
      <!-- 60 -->
      <g style="fill: #262626" transform="translate(662.394942 395.289219) scale(0.11 -0.11)">
       <defs>
        <path id="ArialMT-36" d="M 3184 3459 
L 2625 3416 
Q 2550 3747 2413 3897 
Q 2184 4138 1850 4138 
Q 1581 4138 1378 3988 
Q 1113 3794 959 3422 
Q 806 3050 800 2363 
Q 1003 2672 1297 2822 
Q 1591 2972 1913 2972 
Q 2475 2972 2870 2558 
Q 3266 2144 3266 1488 
Q 3266 1056 3080 686 
Q 2894 316 2569 119 
Q 2244 -78 1831 -78 
Q 1128 -78 684 439 
Q 241 956 241 2144 
Q 241 3472 731 4075 
Q 1159 4600 1884 4600 
Q 2425 4600 2770 4297 
Q 3116 3994 3184 3459 
z
M 888 1484 
Q 888 1194 1011 928 
Q 1134 663 1356 523 
Q 1578 384 1822 384 
Q 2178 384 2434 671 
Q 2691 959 2691 1453 
Q 2691 1928 2437 2201 
Q 2184 2475 1800 2475 
Q 1419 2475 1153 2201 
Q 888 1928 888 1484 
z
" transform="scale(0.015625)"/>
       </defs>
       <use xlink:href="#ArialMT-36"/>
       <use xlink:href="#ArialMT-30" transform="translate(55.615234 0)"/>
      </g>
     </g>
    </g>
    <g id="text_8">
     <!-- Time (seconds) -->
     <g style="fill: #262626" transform="translate(350.136903 410.211094) scale(0.12 -0.12)">
      <defs>
       <path id="ArialMT-54" d="M 1659 0 
L 1659 4041 
L 150 4041 
L 150 4581 
L 3781 4581 
L 3781 4041 
L 2266 4041 
L 2266 0 
L 1659 0 
z
" transform="scale(0.015625)"/>
       <path id="ArialMT-69" d="M 425 3934 
L 425 4581 
L 988 4581 
L 988 3934 
L 425 3934 
z
M 425 0 
L 425 3319 
L 988 3319 
L 988 0 
L 425 0 
z
" transform="scale(0.015625)"/>
       <path id="ArialMT-6d" d="M 422 0 
L 422 3319 
L 925 3319 
L 925 2853 
Q 1081 3097 1340 3245 
Q 1600 3394 1931 3394 
Q 2300 3394 2536 3241 
Q 2772 3088 2869 2813 
Q 3263 3394 3894 3394 
Q 4388 3394 4653 3120 
Q 4919 2847 4919 2278 
L 4919 0 
L 4359 0 
L 4359 2091 
Q 4359 2428 4304 2576 
Q 4250 2725 4106 2815 
Q 3963 2906 3769 2906 
Q 3419 2906 3187 2673 
Q 2956 2441 2956 1928 
L 2956 0 
L 2394 0 
L 2394 2156 
Q 2394 2531 2256 2718 
Q 2119 2906 1806 2906 
Q 1569 2906 1367 2781 
Q 1166 2656 1075 2415 
Q 984 2175 984 1722 
L 984 0 
L 422 0 
z
" transform="scale(0.015625)"/>
       <path id="ArialMT-65" d="M 2694 1069 
L 3275 997 
Q 3138 488 2766 206 
Q 2394 -75 1816 -75 
Q 1088 -75 661 373 
Q 234 822 234 1631 
Q 234 2469 665 2931 
Q 1097 3394 1784 3394 
Q 2450 3394 2872 2941 
Q 3294 2488 3294 1666 
Q 3294 1616 3291 1516 
L 816 1516 
Q 847 969 1125 678 
Q 1403 388 1819 388 
Q 2128 388 2347 550 
Q 2566 713 2694 1069 
z
M 847 1978 
L 2700 1978 
Q 2663 2397 2488 2606 
Q 2219 2931 1791 2931 
Q 1403 2931 1139 2672 
Q 875 2413 847 1978 
z
" transform="scale(0.015625)"/>
       <path id="ArialMT-20" transform="scale(0.015625)"/>
       <path id="ArialMT-28" d="M 1497 -1347 
Q 1031 -759 709 28 
Q 388 816 388 1659 
Q 388 2403 628 3084 
Q 909 3875 1497 4659 
L 1900 4659 
Q 1522 4009 1400 3731 
Q 1209 3300 1100 2831 
Q 966 2247 966 1656 
Q 966 153 1900 -1347 
L 1497 -1347 
z
" transform="scale(0.015625)"/>
       <path id="ArialMT-73" d="M 197 991 
L 753 1078 
Q 800 744 1014 566 
Q 1228 388 1613 388 
Q 2000 388 2187 545 
Q 2375 703 2375 916 
Q 2375 1106 2209 1216 
Q 2094 1291 1634 1406 
Q 1016 1563 777 1677 
Q 538 1791 414 1992 
Q 291 2194 291 2438 
Q 291 2659 392 2848 
Q 494 3038 669 3163 
Q 800 3259 1026 3326 
Q 1253 3394 1513 3394 
Q 1903 3394 2198 3281 
Q 2494 3169 2634 2976 
Q 2775 2784 2828 2463 
L 2278 2388 
Q 2241 2644 2061 2787 
Q 1881 2931 1553 2931 
Q 1166 2931 1000 2803 
Q 834 2675 834 2503 
Q 834 2394 903 2306 
Q 972 2216 1119 2156 
Q 1203 2125 1616 2013 
Q 2213 1853 2448 1751 
Q 2684 1650 2818 1456 
Q 2953 1263 2953 975 
Q 2953 694 2789 445 
Q 2625 197 2315 61 
Q 2006 -75 1616 -75 
Q 969 -75 630 194 
Q 291 463 197 991 
z
" transform="scale(0.015625)"/>
       <path id="ArialMT-63" d="M 2588 1216 
L 3141 1144 
Q 3050 572 2676 248 
Q 2303 -75 1759 -75 
Q 1078 -75 664 370 
Q 250 816 250 1647 
Q 250 2184 428 2587 
Q 606 2991 970 3192 
Q 1334 3394 1763 3394 
Q 2303 3394 2647 3120 
Q 2991 2847 3088 2344 
L 2541 2259 
Q 2463 2594 2264 2762 
Q 2066 2931 1784 2931 
Q 1359 2931 1093 2626 
Q 828 2322 828 1663 
Q 828 994 1084 691 
Q 1341 388 1753 388 
Q 2084 388 2306 591 
Q 2528 794 2588 1216 
z
" transform="scale(0.015625)"/>
       <path id="ArialMT-6f" d="M 213 1659 
Q 213 2581 725 3025 
Q 1153 3394 1769 3394 
Q 2453 3394 2887 2945 
Q 3322 2497 3322 1706 
Q 3322 1066 3130 698 
Q 2938 331 2570 128 
Q 2203 -75 1769 -75 
Q 1072 -75 642 372 
Q 213 819 213 1659 
z
M 791 1659 
Q 791 1022 1069 705 
Q 1347 388 1769 388 
Q 2188 388 2466 706 
Q 2744 1025 2744 1678 
Q 2744 2294 2464 2611 
Q 2184 2928 1769 2928 
Q 1347 2928 1069 2612 
Q 791 2297 791 1659 
z
" transform="scale(0.015625)"/>
       <path id="ArialMT-6e" d="M 422 0 
L 422 3319 
L 928 3319 
L 928 2847 
Q 1294 3394 1984 3394 
Q 2284 3394 2536 3286 
Q 2788 3178 2913 3003 
Q 3038 2828 3088 2588 
Q 3119 2431 3119 2041 
L 3119 0 
L 2556 0 
L 2556 2019 
Q 2556 2363 2490 2533 
Q 2425 2703 2258 2804 
Q 2091 2906 1866 2906 
Q 1506 2906 1245 2678 
Q 984 2450 984 1813 
L 984 0 
L 422 0 
z
" transform="scale(0.015625)"/>
       <path id="ArialMT-64" d="M 2575 0 
L 2575 419 
Q 2259 -75 1647 -75 
Q 1250 -75 917 144 
Q 584 363 401 755 
Q 219 1147 219 1656 
Q 219 2153 384 2558 
Q 550 2963 881 3178 
Q 1213 3394 1622 3394 
Q 1922 3394 2156 3267 
Q 2391 3141 2538 2938 
L 2538 4581 
L 3097 4581 
L 3097 0 
L 2575 0 
z
M 797 1656 
Q 797 1019 1065 703 
Q 1334 388 1700 388 
Q 2069 388 2326 689 
Q 2584 991 2584 1609 
Q 2584 2291 2321 2609 
Q 2059 2928 1675 2928 
Q 1300 2928 1048 2622 
Q 797 2316 797 1656 
z
" transform="scale(0.015625)"/>
       <path id="ArialMT-29" d="M 791 -1347 
L 388 -1347 
Q 1322 153 1322 1656 
Q 1322 2244 1188 2822 
Q 1081 3291 891 3722 
Q 769 4003 388 4659 
L 791 4659 
Q 1378 3875 1659 3084 
Q 1900 2403 1900 1659 
Q 1900 816 1576 28 
Q 1253 -759 791 -1347 
z
" transform="scale(0.015625)"/>
      </defs>
      <use xlink:href="#ArialMT-54"/>
      <use xlink:href="#ArialMT-69" transform="translate(57.333984 0)"/>
      <use xlink:href="#ArialMT-6d" transform="translate(79.550781 0)"/>
      <use xlink:href="#ArialMT-65" transform="translate(162.851562 0)"/>
      <use xlink:href="#ArialMT-20" transform="translate(218.466797 0)"/>
      <use xlink:href="#ArialMT-28" transform="translate(246.25 0)"/>
      <use xlink:href="#ArialMT-73" transform="translate(279.550781 0)"/>
      <use xlink:href="#ArialMT-65" transform="translate(329.550781 0)"/>
      <use xlink:href="#ArialMT-63" transform="translate(385.166016 0)"/>
      <use xlink:href="#ArialMT-6f" transform="translate(435.166016 0)"/>
      <use xlink:href="#ArialMT-6e" transform="translate(490.78125 0)"/>
      <use xlink:href="#ArialMT-64" transform="translate(546.396484 0)"/>
      <use xlink:href="#ArialMT-73" transform="translate(602.011719 0)"/>
      <use xlink:href="#ArialMT-29" transform="translate(652.011719 0)"/>
     </g>
    </g>
   </g>
   <g id="matplotlib.axis_2">
    <g id="ytick_1">
     <g id="line2d_8">
      <path d="M 85.809219 54.712338 
L 696.696462 54.712338 
" clip-path="url(#p8126a469de)" style="fill: none; stroke: #cccccc; stroke-linecap: round"/>
     </g>
     <g id="text_9">
      <!-- llama3.2:1b -->
      <g style="fill: #262626" transform="translate(19.444375 58.649135) scale(0.11 -0.11)">
       <defs>
        <path id="ArialMT-6c" d="M 409 0 
L 409 4581 
L 972 4581 
L 972 0 
L 409 0 
z
" transform="scale(0.015625)"/>
        <path id="ArialMT-61" d="M 2588 409 
Q 2275 144 1986 34 
Q 1697 -75 1366 -75 
Q 819 -75 525 192 
Q 231 459 231 875 
Q 231 1119 342 1320 
Q 453 1522 633 1644 
Q 813 1766 1038 1828 
Q 1203 1872 1538 1913 
Q 2219 1994 2541 2106 
Q 2544 2222 2544 2253 
Q 2544 2597 2384 2738 
Q 2169 2928 1744 2928 
Q 1347 2928 1158 2789 
Q 969 2650 878 2297 
L 328 2372 
Q 403 2725 575 2942 
Q 747 3159 1072 3276 
Q 1397 3394 1825 3394 
Q 2250 3394 2515 3294 
Q 2781 3194 2906 3042 
Q 3031 2891 3081 2659 
Q 3109 2516 3109 2141 
L 3109 1391 
Q 3109 606 3145 398 
Q 3181 191 3288 0 
L 2700 0 
Q 2613 175 2588 409 
z
M 2541 1666 
Q 2234 1541 1622 1453 
Q 1275 1403 1131 1340 
Q 988 1278 909 1158 
Q 831 1038 831 891 
Q 831 666 1001 516 
Q 1172 366 1500 366 
Q 1825 366 2078 508 
Q 2331 650 2450 897 
Q 2541 1088 2541 1459 
L 2541 1666 
z
" transform="scale(0.015625)"/>
        <path id="ArialMT-2e" d="M 581 0 
L 581 641 
L 1222 641 
L 1222 0 
L 581 0 
z
" transform="scale(0.015625)"/>
        <path id="ArialMT-3a" d="M 578 2678 
L 578 3319 
L 1219 3319 
L 1219 2678 
L 578 2678 
z
M 578 0 
L 578 641 
L 1219 641 
L 1219 0 
L 578 0 
z
" transform="scale(0.015625)"/>
        <path id="ArialMT-62" d="M 941 0 
L 419 0 
L 419 4581 
L 981 4581 
L 981 2947 
Q 1338 3394 1891 3394 
Q 2197 3394 2470 3270 
Q 2744 3147 2920 2923 
Q 3097 2700 3197 2384 
Q 3297 2069 3297 1709 
Q 3297 856 2875 390 
Q 2453 -75 1863 -75 
Q 1275 -75 941 416 
L 941 0 
z
M 934 1684 
Q 934 1088 1097 822 
Q 1363 388 1816 388 
Q 2184 388 2453 708 
Q 2722 1028 2722 1663 
Q 2722 2313 2464 2622 
Q 2206 2931 1841 2931 
Q 1472 2931 1203 2611 
Q 934 2291 934 1684 
z
" transform="scale(0.015625)"/>
       </defs>
       <use xlink:href="#ArialMT-6c"/>
       <use xlink:href="#ArialMT-6c" transform="translate(22.216797 0)"/>
       <use xlink:href="#ArialMT-61" transform="translate(44.433594 0)"/>
       <use xlink:href="#ArialMT-6d" transform="translate(100.048828 0)"/>
       <use xlink:href="#ArialMT-61" transform="translate(183.349609 0)"/>
       <use xlink:href="#ArialMT-33" transform="translate(238.964844 0)"/>
       <use xlink:href="#ArialMT-2e" transform="translate(294.580078 0)"/>
       <use xlink:href="#ArialMT-32" transform="translate(322.363281 0)"/>
       <use xlink:href="#ArialMT-3a" transform="translate(377.978516 0)"/>
       <use xlink:href="#ArialMT-31" transform="translate(405.761719 0)"/>
       <use xlink:href="#ArialMT-62" transform="translate(461.376953 0)"/>
      </g>
     </g>
    </g>
    <g id="ytick_2">
     <g id="line2d_9">
      <path d="M 85.809219 96.201849 
L 696.696462 96.201849 
" clip-path="url(#p8126a469de)" style="fill: none; stroke: #cccccc; stroke-linecap: round"/>
     </g>
     <g id="text_10">
      <!-- llama3.2:3b -->
      <g style="fill: #262626" transform="translate(19.444375 100.138646) scale(0.11 -0.11)">
       <use xlink:href="#ArialMT-6c"/>
       <use xlink:href="#ArialMT-6c" transform="translate(22.216797 0)"/>
       <use xlink:href="#ArialMT-61" transform="translate(44.433594 0)"/>
       <use xlink:href="#ArialMT-6d" transform="translate(100.048828 0)"/>
       <use xlink:href="#ArialMT-61" transform="translate(183.349609 0)"/>
       <use xlink:href="#ArialMT-33" transform="translate(238.964844 0)"/>
       <use xlink:href="#ArialMT-2e" transform="translate(294.580078 0)"/>
       <use xlink:href="#ArialMT-32" transform="translate(322.363281 0)"/>
       <use xlink:href="#ArialMT-3a" transform="translate(377.978516 0)"/>
       <use xlink:href="#ArialMT-33" transform="translate(405.761719 0)"/>
       <use xlink:href="#ArialMT-62" transform="translate(461.376953 0)"/>
      </g>
     </g>
    </g>
    <g id="ytick_3">
     <g id="line2d_10">
      <path d="M 85.809219 137.691359 
L 696.696462 137.691359 
" clip-path="url(#p8126a469de)" style="fill: none; stroke: #cccccc; stroke-linecap: round"/>
     </g>
     <g id="text_11">
      <!-- qwen3.5:2b -->
      <g style="fill: #262626" transform="translate(19.434062 141.644484) scale(0.11 -0.11)">
       <defs>
        <path id="ArialMT-71" d="M 2538 -1272 
L 2538 353 
Q 2406 169 2170 47 
Q 1934 -75 1669 -75 
Q 1078 -75 651 397 
Q 225 869 225 1691 
Q 225 2191 398 2587 
Q 572 2984 901 3189 
Q 1231 3394 1625 3394 
Q 2241 3394 2594 2875 
L 2594 3319 
L 3100 3319 
L 3100 -1272 
L 2538 -1272 
z
M 803 1669 
Q 803 1028 1072 708 
Q 1341 388 1716 388 
Q 2075 388 2334 692 
Q 2594 997 2594 1619 
Q 2594 2281 2320 2615 
Q 2047 2950 1678 2950 
Q 1313 2950 1058 2639 
Q 803 2328 803 1669 
z
" transform="scale(0.015625)"/>
        <path id="ArialMT-77" d="M 1034 0 
L 19 3319 
L 600 3319 
L 1128 1403 
L 1325 691 
Q 1338 744 1497 1375 
L 2025 3319 
L 2603 3319 
L 3100 1394 
L 3266 759 
L 3456 1400 
L 4025 3319 
L 4572 3319 
L 3534 0 
L 2950 0 
L 2422 1988 
L 2294 2553 
L 1622 0 
L 1034 0 
z
" transform="scale(0.015625)"/>
       </defs>
       <use xlink:href="#ArialMT-71"/>
       <use xlink:href="#ArialMT-77" transform="translate(55.615234 0)"/>
       <use xlink:href="#ArialMT-65" transform="translate(127.832031 0)"/>
       <use xlink:href="#ArialMT-6e" transform="translate(183.447266 0)"/>
       <use xlink:href="#ArialMT-33" transform="translate(239.0625 0)"/>
       <use xlink:href="#ArialMT-2e" transform="translate(294.677734 0)"/>
       <use xlink:href="#ArialMT-35" transform="translate(322.460938 0)"/>
       <use xlink:href="#ArialMT-3a" transform="translate(378.076172 0)"/>
       <use xlink:href="#ArialMT-32" transform="translate(405.859375 0)"/>
       <use xlink:href="#ArialMT-62" transform="translate(461.474609 0)"/>
      </g>
     </g>
    </g>
    <g id="ytick_4">
     <g id="line2d_11">
      <path d="M 85.809219 179.18087 
L 696.696462 179.18087 
" clip-path="url(#p8126a469de)" style="fill: none; stroke: #cccccc; stroke-linecap: round"/>
     </g>
     <g id="text_12">
      <!-- qwen3.5:4b -->
      <g style="fill: #262626" transform="translate(19.434062 183.133995) scale(0.11 -0.11)">
       <use xlink:href="#ArialMT-71"/>
       <use xlink:href="#ArialMT-77" transform="translate(55.615234 0)"/>
       <use xlink:href="#ArialMT-65" transform="translate(127.832031 0)"/>
       <use xlink:href="#ArialMT-6e" transform="translate(183.447266 0)"/>
       <use xlink:href="#ArialMT-33" transform="translate(239.0625 0)"/>
       <use xlink:href="#ArialMT-2e" transform="translate(294.677734 0)"/>
       <use xlink:href="#ArialMT-35" transform="translate(322.460938 0)"/>
       <use xlink:href="#ArialMT-3a" transform="translate(378.076172 0)"/>
       <use xlink:href="#ArialMT-34" transform="translate(405.859375 0)"/>
       <use xlink:href="#ArialMT-62" transform="translate(461.474609 0)"/>
      </g>
     </g>
    </g>
    <g id="ytick_5">
     <g id="line2d_12">
      <path d="M 85.809219 220.67038 
L 696.696462 220.67038 
" clip-path="url(#p8126a469de)" style="fill: none; stroke: #cccccc; stroke-linecap: round"/>
     </g>
     <g id="text_13">
      <!-- qwen3.5:9b -->
      <g style="fill: #262626" transform="translate(19.434062 224.623505) scale(0.11 -0.11)">
       <defs>
        <path id="ArialMT-39" d="M 350 1059 
L 891 1109 
Q 959 728 1153 556 
Q 1347 384 1650 384 
Q 1909 384 2104 503 
Q 2300 622 2425 820 
Q 2550 1019 2634 1356 
Q 2719 1694 2719 2044 
Q 2719 2081 2716 2156 
Q 2547 1888 2255 1720 
Q 1963 1553 1622 1553 
Q 1053 1553 659 1965 
Q 266 2378 266 3053 
Q 266 3750 677 4175 
Q 1088 4600 1706 4600 
Q 2153 4600 2523 4359 
Q 2894 4119 3086 3673 
Q 3278 3228 3278 2384 
Q 3278 1506 3087 986 
Q 2897 466 2520 194 
Q 2144 -78 1638 -78 
Q 1100 -78 759 220 
Q 419 519 350 1059 
z
M 2653 3081 
Q 2653 3566 2395 3850 
Q 2138 4134 1775 4134 
Q 1400 4134 1122 3828 
Q 844 3522 844 3034 
Q 844 2597 1108 2323 
Q 1372 2050 1759 2050 
Q 2150 2050 2401 2323 
Q 2653 2597 2653 3081 
z
" transform="scale(0.015625)"/>
       </defs>
       <use xlink:href="#ArialMT-71"/>
       <use xlink:href="#ArialMT-77" transform="translate(55.615234 0)"/>
       <use xlink:href="#ArialMT-65" transform="translate(127.832031 0)"/>
       <use xlink:href="#ArialMT-6e" transform="translate(183.447266 0)"/>
       <use xlink:href="#ArialMT-33" transform="translate(239.0625 0)"/>
       <use xlink:href="#ArialMT-2e" transform="translate(294.677734 0)"/>
       <use xlink:href="#ArialMT-35" transform="translate(322.460938 0)"/>
       <use xlink:href="#ArialMT-3a" transform="translate(378.076172 0)"/>
       <use xlink:href="#ArialMT-39" transform="translate(405.859375 0)"/>
       <use xlink:href="#ArialMT-62" transform="translate(461.474609 0)"/>
      </g>
     </g>
    </g>
    <g id="ytick_6">
     <g id="line2d_13">
      <path d="M 85.809219 262.159891 
L 696.696462 262.159891 
" clip-path="url(#p8126a469de)" style="fill: none; stroke: #cccccc; stroke-linecap: round"/>
     </g>
     <g id="text_14">
      <!-- qwen3.5:27b -->
      <g style="fill: #262626" transform="translate(13.317031 266.113016) scale(0.11 -0.11)">
       <defs>
        <path id="ArialMT-37" d="M 303 3981 
L 303 4522 
L 3269 4522 
L 3269 4084 
Q 2831 3619 2401 2847 
Q 1972 2075 1738 1259 
Q 1569 684 1522 0 
L 944 0 
Q 953 541 1156 1306 
Q 1359 2072 1739 2783 
Q 2119 3494 2547 3981 
L 303 3981 
z
" transform="scale(0.015625)"/>
       </defs>
       <use xlink:href="#ArialMT-71"/>
       <use xlink:href="#ArialMT-77" transform="translate(55.615234 0)"/>
       <use xlink:href="#ArialMT-65" transform="translate(127.832031 0)"/>
       <use xlink:href="#ArialMT-6e" transform="translate(183.447266 0)"/>
       <use xlink:href="#ArialMT-33" transform="translate(239.0625 0)"/>
       <use xlink:href="#ArialMT-2e" transform="translate(294.677734 0)"/>
       <use xlink:href="#ArialMT-35" transform="translate(322.460938 0)"/>
       <use xlink:href="#ArialMT-3a" transform="translate(378.076172 0)"/>
       <use xlink:href="#ArialMT-32" transform="translate(405.859375 0)"/>
       <use xlink:href="#ArialMT-37" transform="translate(461.474609 0)"/>
       <use xlink:href="#ArialMT-62" transform="translate(517.089844 0)"/>
      </g>
     </g>
    </g>
    <g id="ytick_7">
     <g id="line2d_14">
      <path d="M 85.809219 303.649401 
L 696.696462 303.649401 
" clip-path="url(#p8126a469de)" style="fill: none; stroke: #cccccc; stroke-linecap: round"/>
     </g>
     <g id="text_15">
      <!-- qwen3.5:35b -->
      <g style="fill: #262626" transform="translate(13.317031 307.602526) scale(0.11 -0.11)">
       <use xlink:href="#ArialMT-71"/>
       <use xlink:href="#ArialMT-77" transform="translate(55.615234 0)"/>
       <use xlink:href="#ArialMT-65" transform="translate(127.832031 0)"/>
       <use xlink:href="#ArialMT-6e" transform="translate(183.447266 0)"/>
       <use xlink:href="#ArialMT-33" transform="translate(239.0625 0)"/>
       <use xlink:href="#ArialMT-2e" transform="translate(294.677734 0)"/>
       <use xlink:href="#ArialMT-35" transform="translate(322.460938 0)"/>
       <use xlink:href="#ArialMT-3a" transform="translate(378.076172 0)"/>
       <use xlink:href="#ArialMT-33" transform="translate(405.859375 0)"/>
       <use xlink:href="#ArialMT-35" transform="translate(461.474609 0)"/>
       <use xlink:href="#ArialMT-62" transform="translate(517.089844 0)"/>
      </g>
     </g>
    </g>
    <g id="ytick_8">
     <g id="line2d_15">
      <path d="M 85.809219 345.138912 
L 696.696462 345.138912 
" clip-path="url(#p8126a469de)" style="fill: none; stroke: #cccccc; stroke-linecap: round"/>
     </g>
     <g id="text_16">
      <!-- qwen3.5:122b -->
      <g style="fill: #262626" transform="translate(7.2 349.092037) scale(0.11 -0.11)">
       <use xlink:href="#ArialMT-71"/>
       <use xlink:href="#ArialMT-77" transform="translate(55.615234 0)"/>
       <use xlink:href="#ArialMT-65" transform="translate(127.832031 0)"/>
       <use xlink:href="#ArialMT-6e" transform="translate(183.447266 0)"/>
       <use xlink:href="#ArialMT-33" transform="translate(239.0625 0)"/>
       <use xlink:href="#ArialMT-2e" transform="translate(294.677734 0)"/>
       <use xlink:href="#ArialMT-35" transform="translate(322.460938 0)"/>
       <use xlink:href="#ArialMT-3a" transform="translate(378.076172 0)"/>
       <use xlink:href="#ArialMT-31" transform="translate(405.859375 0)"/>
       <use xlink:href="#ArialMT-32" transform="translate(461.474609 0)"/>
       <use xlink:href="#ArialMT-32" transform="translate(517.089844 0)"/>
       <use xlink:href="#ArialMT-62" transform="translate(572.705078 0)"/>
      </g>
     </g>
    </g>
   </g>
   <g id="patch_3">
    <path d="M 85.809219 38.116534 
L 114.891334 38.116534 
L 114.891334 71.308142 
L 85.809219 71.308142 
z
" clip-path="url(#p8126a469de)" style="fill: #dd8452; stroke: #ffffff; stroke-linejoin: miter"/>
   </g>
   <g id="patch_4">
    <path d="M 85.809219 79.606045 
L 115.020966 79.606045 
L 115.020966 112.797653 
L 85.809219 112.797653 
z
" clip-path="url(#p8126a469de)" style="fill: #dd8452; stroke: #ffffff; stroke-linejoin: miter"/>
   </g>
   <g id="patch_5">
    <path d="M 85.809219 121.095555 
L 85.809219 121.095555 
L 85.809219 154.287163 
L 85.809219 154.287163 
z
" clip-path="url(#p8126a469de)" style="fill: #dd8452; stroke: #ffffff; stroke-linejoin: miter"/>
   </g>
   <g id="patch_6">
    <path d="M 85.809219 162.585066 
L 85.809219 162.585066 
L 85.809219 195.776674 
L 85.809219 195.776674 
z
" clip-path="url(#p8126a469de)" style="fill: #dd8452; stroke: #ffffff; stroke-linejoin: miter"/>
   </g>
   <g id="patch_7">
    <path d="M 85.809219 204.074576 
L 85.809219 204.074576 
L 85.809219 237.266184 
L 85.809219 237.266184 
z
" clip-path="url(#p8126a469de)" style="fill: #dd8452; stroke: #ffffff; stroke-linejoin: miter"/>
   </g>
   <g id="patch_8">
    <path d="M 85.809219 245.564087 
L 85.809219 245.564087 
L 85.809219 278.755695 
L 85.809219 278.755695 
z
" clip-path="url(#p8126a469de)" style="fill: #dd8452; stroke: #ffffff; stroke-linejoin: miter"/>
   </g>
   <g id="patch_9">
    <path d="M 85.809219 287.053597 
L 85.809219 287.053597 
L 85.809219 320.245205 
L 85.809219 320.245205 
z
" clip-path="url(#p8126a469de)" style="fill: #dd8452; stroke: #ffffff; stroke-linejoin: miter"/>
   </g>
   <g id="patch_10">
    <path d="M 85.809219 328.543108 
L 85.809219 328.543108 
L 85.809219 361.734716 
L 85.809219 361.734716 
z
" clip-path="url(#p8126a469de)" style="fill: #dd8452; stroke: #ffffff; stroke-linejoin: miter"/>
   </g>
   <g id="patch_11">
    <path d="M 114.891334 38.116534 
L 119.940255 38.116534 
L 119.940255 71.308142 
L 114.891334 71.308142 
z
" clip-path="url(#p8126a469de)" style="fill: #4c72b0; stroke: #ffffff; stroke-linejoin: miter"/>
   </g>
   <g id="patch_12">
    <path d="M 115.020966 79.606045 
L 120.778907 79.606045 
L 120.778907 112.797653 
L 115.020966 112.797653 
z
" clip-path="url(#p8126a469de)" style="fill: #4c72b0; stroke: #ffffff; stroke-linejoin: miter"/>
   </g>
   <g id="patch_13">
    <path d="M 85.809219 121.095555 
L 347.499728 121.095555 
L 347.499728 154.287163 
L 85.809219 154.287163 
z
" clip-path="url(#p8126a469de)" style="fill: #4c72b0; stroke: #ffffff; stroke-linejoin: miter"/>
   </g>
   <g id="patch_14">
    <path d="M 85.809219 162.585066 
L 417.249224 162.585066 
L 417.249224 195.776674 
L 85.809219 195.776674 
z
" clip-path="url(#p8126a469de)" style="fill: #4c72b0; stroke: #ffffff; stroke-linejoin: miter"/>
   </g>
   <g id="patch_15">
    <path d="M 85.809219 204.074576 
L 351.405354 204.074576 
L 351.405354 237.266184 
L 85.809219 237.266184 
z
" clip-path="url(#p8126a469de)" style="fill: #4c72b0; stroke: #ffffff; stroke-linejoin: miter"/>
   </g>
   <g id="patch_16">
    <path d="M 85.809219 245.564087 
L 667.606593 245.564087 
L 667.606593 278.755695 
L 85.809219 278.755695 
z
" clip-path="url(#p8126a469de)" style="fill: #4c72b0; stroke: #ffffff; stroke-linejoin: miter"/>
   </g>
   <g id="patch_17">
    <path d="M 85.809219 287.053597 
L 327.159215 287.053597 
L 327.159215 320.245205 
L 85.809219 320.245205 
z
" clip-path="url(#p8126a469de)" style="fill: #4c72b0; stroke: #ffffff; stroke-linejoin: miter"/>
   </g>
   <g id="patch_18">
    <path d="M 85.809219 328.543108 
L 436.717259 328.543108 
L 436.717259 361.734716 
L 85.809219 361.734716 
z
" clip-path="url(#p8126a469de)" style="fill: #4c72b0; stroke: #ffffff; stroke-linejoin: miter"/>
   </g>
   <g id="patch_19">
    <path d="M 85.809219 377.915625 
L 85.809219 21.935625 
" style="fill: none; stroke: #cccccc; stroke-width: 1.25; stroke-linejoin: miter; stroke-linecap: square"/>
   </g>
   <g id="patch_20">
    <path d="M 696.696462 377.915625 
L 696.696462 21.935625 
" style="fill: none; stroke: #cccccc; stroke-width: 1.25; stroke-linejoin: miter; stroke-linecap: square"/>
   </g>
   <g id="patch_21">
    <path d="M 85.809219 377.915625 
L 696.696462 377.915625 
" style="fill: none; stroke: #cccccc; stroke-width: 1.25; stroke-linejoin: miter; stroke-linecap: square"/>
   </g>
   <g id="patch_22">
    <path d="M 85.809219 21.935625 
L 696.696462 21.935625 
" style="fill: none; stroke: #cccccc; stroke-width: 1.25; stroke-linejoin: miter; stroke-linecap: square"/>
   </g>
   <g id="text_17">
    <!-- 3.5s -->
    <g style="fill: #262626" transform="translate(121.882598 57.814526) scale(0.12 -0.12)">
     <use xlink:href="#ArialMT-33"/>
     <use xlink:href="#ArialMT-2e" transform="translate(55.615234 0)"/>
     <use xlink:href="#ArialMT-35" transform="translate(83.398438 0)"/>
     <use xlink:href="#ArialMT-73" transform="translate(139.013672 0)"/>
    </g>
   </g>
   <g id="text_18">
    <!-- 3.6s -->
    <g style="fill: #262626" transform="translate(122.721249 99.304036) scale(0.12 -0.12)">
     <use xlink:href="#ArialMT-33"/>
     <use xlink:href="#ArialMT-2e" transform="translate(55.615234 0)"/>
     <use xlink:href="#ArialMT-36" transform="translate(83.398438 0)"/>
     <use xlink:href="#ArialMT-73" transform="translate(139.013672 0)"/>
    </g>
   </g>
   <g id="text_19">
    <!-- 26.9s -->
    <g style="fill: #262626" transform="translate(349.44207 140.793547) scale(0.12 -0.12)">
     <use xlink:href="#ArialMT-32"/>
     <use xlink:href="#ArialMT-36" transform="translate(55.615234 0)"/>
     <use xlink:href="#ArialMT-2e" transform="translate(111.230469 0)"/>
     <use xlink:href="#ArialMT-39" transform="translate(139.013672 0)"/>
     <use xlink:href="#ArialMT-73" transform="translate(194.628906 0)"/>
    </g>
   </g>
   <g id="text_20">
    <!-- 34.1s -->
    <g style="fill: #262626" transform="translate(419.191566 182.283057) scale(0.12 -0.12)">
     <use xlink:href="#ArialMT-33"/>
     <use xlink:href="#ArialMT-34" transform="translate(55.615234 0)"/>
     <use xlink:href="#ArialMT-2e" transform="translate(111.230469 0)"/>
     <use xlink:href="#ArialMT-31" transform="translate(139.013672 0)"/>
     <use xlink:href="#ArialMT-73" transform="translate(194.628906 0)"/>
    </g>
   </g>
   <g id="text_21">
    <!-- 27.3s -->
    <g style="fill: #262626" transform="translate(353.347697 223.772568) scale(0.12 -0.12)">
     <use xlink:href="#ArialMT-32"/>
     <use xlink:href="#ArialMT-37" transform="translate(55.615234 0)"/>
     <use xlink:href="#ArialMT-2e" transform="translate(111.230469 0)"/>
     <use xlink:href="#ArialMT-33" transform="translate(139.013672 0)"/>
     <use xlink:href="#ArialMT-73" transform="translate(194.628906 0)"/>
    </g>
   </g>
   <g id="text_22">
    <!-- 59.9s -->
    <g style="fill: #262626" transform="translate(669.548936 265.262078) scale(0.12 -0.12)">
     <use xlink:href="#ArialMT-35"/>
     <use xlink:href="#ArialMT-39" transform="translate(55.615234 0)"/>
     <use xlink:href="#ArialMT-2e" transform="translate(111.230469 0)"/>
     <use xlink:href="#ArialMT-39" transform="translate(139.013672 0)"/>
     <use xlink:href="#ArialMT-73" transform="translate(194.628906 0)"/>
    </g>
   </g>
   <g id="text_23">
    <!-- 24.9s -->
    <g style="fill: #262626" transform="translate(329.101558 306.751589) scale(0.12 -0.12)">
     <use xlink:href="#ArialMT-32"/>
     <use xlink:href="#ArialMT-34" transform="translate(55.615234 0)"/>
     <use xlink:href="#ArialMT-2e" transform="translate(111.230469 0)"/>
     <use xlink:href="#ArialMT-39" transform="translate(139.013672 0)"/>
     <use xlink:href="#ArialMT-73" transform="translate(194.628906 0)"/>
    </g>
   </g>
   <g id="text_24">
    <!-- 36.1s -->
    <g style="fill: #262626" transform="translate(438.659602 348.241099) scale(0.12 -0.12)">
     <use xlink:href="#ArialMT-33"/>
     <use xlink:href="#ArialMT-36" transform="translate(55.615234 0)"/>
     <use xlink:href="#ArialMT-2e" transform="translate(111.230469 0)"/>
     <use xlink:href="#ArialMT-31" transform="translate(139.013672 0)"/>
     <use xlink:href="#ArialMT-73" transform="translate(194.628906 0)"/>
    </g>
   </g>
   <g id="text_25">
    <!-- Average Inference Time -->
    <g style="fill: #262626" transform="translate(323.890653 15.935625) scale(0.12 -0.12)">
     <defs>
      <path id="Arial-BoldMT-41" d="M 4597 0 
L 3591 0 
L 3191 1041 
L 1359 1041 
L 981 0 
L 0 0 
L 1784 4581 
L 2763 4581 
L 4597 0 
z
M 2894 1813 
L 2263 3513 
L 1644 1813 
L 2894 1813 
z
" transform="scale(0.015625)"/>
      <path id="Arial-BoldMT-76" d="M 1372 0 
L 34 3319 
L 956 3319 
L 1581 1625 
L 1763 1059 
Q 1834 1275 1853 1344 
Q 1897 1484 1947 1625 
L 2578 3319 
L 3481 3319 
L 2163 0 
L 1372 0 
z
" transform="scale(0.015625)"/>
      <path id="Arial-BoldMT-65" d="M 2381 1056 
L 3256 909 
Q 3088 428 2723 176 
Q 2359 -75 1813 -75 
Q 947 -75 531 491 
Q 203 944 203 1634 
Q 203 2459 634 2926 
Q 1066 3394 1725 3394 
Q 2466 3394 2894 2905 
Q 3322 2416 3303 1406 
L 1103 1406 
Q 1113 1016 1316 798 
Q 1519 581 1822 581 
Q 2028 581 2168 693 
Q 2309 806 2381 1056 
z
M 2431 1944 
Q 2422 2325 2234 2523 
Q 2047 2722 1778 2722 
Q 1491 2722 1303 2513 
Q 1116 2303 1119 1944 
L 2431 1944 
z
" transform="scale(0.015625)"/>
      <path id="Arial-BoldMT-72" d="M 1300 0 
L 422 0 
L 422 3319 
L 1238 3319 
L 1238 2847 
Q 1447 3181 1614 3287 
Q 1781 3394 1994 3394 
Q 2294 3394 2572 3228 
L 2300 2463 
Q 2078 2606 1888 2606 
Q 1703 2606 1575 2504 
Q 1447 2403 1373 2137 
Q 1300 1872 1300 1025 
L 1300 0 
z
" transform="scale(0.015625)"/>
      <path id="Arial-BoldMT-61" d="M 1116 2306 
L 319 2450 
Q 453 2931 781 3162 
Q 1109 3394 1756 3394 
Q 2344 3394 2631 3255 
Q 2919 3116 3036 2902 
Q 3153 2688 3153 2116 
L 3144 1091 
Q 3144 653 3186 445 
Q 3228 238 3344 0 
L 2475 0 
Q 2441 88 2391 259 
Q 2369 338 2359 363 
Q 2134 144 1878 34 
Q 1622 -75 1331 -75 
Q 819 -75 523 203 
Q 228 481 228 906 
Q 228 1188 362 1408 
Q 497 1628 739 1745 
Q 981 1863 1438 1950 
Q 2053 2066 2291 2166 
L 2291 2253 
Q 2291 2506 2166 2614 
Q 2041 2722 1694 2722 
Q 1459 2722 1328 2630 
Q 1197 2538 1116 2306 
z
M 2291 1594 
Q 2122 1538 1756 1459 
Q 1391 1381 1278 1306 
Q 1106 1184 1106 997 
Q 1106 813 1243 678 
Q 1381 544 1594 544 
Q 1831 544 2047 700 
Q 2206 819 2256 991 
Q 2291 1103 2291 1419 
L 2291 1594 
z
" transform="scale(0.015625)"/>
      <path id="Arial-BoldMT-67" d="M 378 -219 
L 1381 -341 
Q 1406 -516 1497 -581 
Q 1622 -675 1891 -675 
Q 2234 -675 2406 -572 
Q 2522 -503 2581 -350 
Q 2622 -241 2622 53 
L 2622 538 
Q 2228 0 1628 0 
Q 959 0 569 566 
Q 263 1013 263 1678 
Q 263 2513 664 2953 
Q 1066 3394 1663 3394 
Q 2278 3394 2678 2853 
L 2678 3319 
L 3500 3319 
L 3500 341 
Q 3500 -247 3403 -537 
Q 3306 -828 3131 -993 
Q 2956 -1159 2664 -1253 
Q 2372 -1347 1925 -1347 
Q 1081 -1347 728 -1058 
Q 375 -769 375 -325 
Q 375 -281 378 -219 
z
M 1163 1728 
Q 1163 1200 1367 954 
Q 1572 709 1872 709 
Q 2194 709 2416 961 
Q 2638 1213 2638 1706 
Q 2638 2222 2425 2472 
Q 2213 2722 1888 2722 
Q 1572 2722 1367 2476 
Q 1163 2231 1163 1728 
z
" transform="scale(0.015625)"/>
      <path id="Arial-BoldMT-20" transform="scale(0.015625)"/>
      <path id="Arial-BoldMT-49" d="M 438 0 
L 438 4581 
L 1363 4581 
L 1363 0 
L 438 0 
z
" transform="scale(0.015625)"/>
      <path id="Arial-BoldMT-6e" d="M 3478 0 
L 2600 0 
L 2600 1694 
Q 2600 2231 2544 2389 
Q 2488 2547 2361 2634 
Q 2234 2722 2056 2722 
Q 1828 2722 1647 2597 
Q 1466 2472 1398 2265 
Q 1331 2059 1331 1503 
L 1331 0 
L 453 0 
L 453 3319 
L 1269 3319 
L 1269 2831 
Q 1703 3394 2363 3394 
Q 2653 3394 2893 3289 
Q 3134 3184 3257 3021 
Q 3381 2859 3429 2653 
Q 3478 2447 3478 2063 
L 3478 0 
z
" transform="scale(0.015625)"/>
      <path id="Arial-BoldMT-66" d="M 75 3319 
L 563 3319 
L 563 3569 
Q 563 3988 652 4194 
Q 741 4400 980 4529 
Q 1219 4659 1584 4659 
Q 1959 4659 2319 4547 
L 2200 3934 
Q 1991 3984 1797 3984 
Q 1606 3984 1523 3895 
Q 1441 3806 1441 3553 
L 1441 3319 
L 2097 3319 
L 2097 2628 
L 1441 2628 
L 1441 0 
L 563 0 
L 563 2628 
L 75 2628 
L 75 3319 
z
" transform="scale(0.015625)"/>
      <path id="Arial-BoldMT-63" d="M 3353 2338 
L 2488 2181 
Q 2444 2441 2289 2572 
Q 2134 2703 1888 2703 
Q 1559 2703 1364 2476 
Q 1169 2250 1169 1719 
Q 1169 1128 1367 884 
Q 1566 641 1900 641 
Q 2150 641 2309 783 
Q 2469 925 2534 1272 
L 3397 1125 
Q 3263 531 2881 228 
Q 2500 -75 1859 -75 
Q 1131 -75 698 384 
Q 266 844 266 1656 
Q 266 2478 700 2936 
Q 1134 3394 1875 3394 
Q 2481 3394 2839 3133 
Q 3197 2872 3353 2338 
z
" transform="scale(0.015625)"/>
      <path id="Arial-BoldMT-54" d="M 1497 0 
L 1497 3806 
L 138 3806 
L 138 4581 
L 3778 4581 
L 3778 3806 
L 2422 3806 
L 2422 0 
L 1497 0 
z
" transform="scale(0.015625)"/>
      <path id="Arial-BoldMT-69" d="M 459 3769 
L 459 4581 
L 1338 4581 
L 1338 3769 
L 459 3769 
z
M 459 0 
L 459 3319 
L 1338 3319 
L 1338 0 
L 459 0 
z
" transform="scale(0.015625)"/>
      <path id="Arial-BoldMT-6d" d="M 394 3319 
L 1203 3319 
L 1203 2866 
Q 1638 3394 2238 3394 
Q 2556 3394 2790 3262 
Q 3025 3131 3175 2866 
Q 3394 3131 3647 3262 
Q 3900 3394 4188 3394 
Q 4553 3394 4806 3245 
Q 5059 3097 5184 2809 
Q 5275 2597 5275 2122 
L 5275 0 
L 4397 0 
L 4397 1897 
Q 4397 2391 4306 2534 
Q 4184 2722 3931 2722 
Q 3747 2722 3584 2609 
Q 3422 2497 3350 2280 
Q 3278 2063 3278 1594 
L 3278 0 
L 2400 0 
L 2400 1819 
Q 2400 2303 2353 2443 
Q 2306 2584 2207 2653 
Q 2109 2722 1941 2722 
Q 1738 2722 1575 2612 
Q 1413 2503 1342 2297 
Q 1272 2091 1272 1613 
L 1272 0 
L 394 0 
L 394 3319 
z
" transform="scale(0.015625)"/>
     </defs>
     <use xlink:href="#Arial-BoldMT-41"/>
     <use xlink:href="#Arial-BoldMT-76" transform="translate(68.466797 0)"/>
     <use xlink:href="#Arial-BoldMT-65" transform="translate(124.082031 0)"/>
     <use xlink:href="#Arial-BoldMT-72" transform="translate(179.697266 0)"/>
     <use xlink:href="#Arial-BoldMT-61" transform="translate(218.613281 0)"/>
     <use xlink:href="#Arial-BoldMT-67" transform="translate(274.228516 0)"/>
     <use xlink:href="#Arial-BoldMT-65" transform="translate(335.3125 0)"/>
     <use xlink:href="#Arial-BoldMT-20" transform="translate(390.927734 0)"/>
     <use xlink:href="#Arial-BoldMT-49" transform="translate(418.710938 0)"/>
     <use xlink:href="#Arial-BoldMT-6e" transform="translate(446.494141 0)"/>
     <use xlink:href="#Arial-BoldMT-66" transform="translate(507.578125 0)"/>
     <use xlink:href="#Arial-BoldMT-65" transform="translate(540.878906 0)"/>
     <use xlink:href="#Arial-BoldMT-72" transform="translate(596.494141 0)"/>
     <use xlink:href="#Arial-BoldMT-65" transform="translate(635.410156 0)"/>
     <use xlink:href="#Arial-BoldMT-6e" transform="translate(691.025391 0)"/>
     <use xlink:href="#Arial-BoldMT-63" transform="translate(752.109375 0)"/>
     <use xlink:href="#Arial-BoldMT-65" transform="translate(807.724609 0)"/>
     <use xlink:href="#Arial-BoldMT-20" transform="translate(863.339844 0)"/>
     <use xlink:href="#Arial-BoldMT-54" transform="translate(891.123047 0)"/>
     <use xlink:href="#Arial-BoldMT-69" transform="translate(950.457031 0)"/>
     <use xlink:href="#Arial-BoldMT-6d" transform="translate(978.240234 0)"/>
     <use xlink:href="#Arial-BoldMT-65" transform="translate(1067.15625 0)"/>
    </g>
   </g>
   <g id="legend_1">
    <g id="patch_23">
     <path d="M 507.704431 372.415625 
L 688.996462 372.415625 
Q 691.196462 372.415625 691.196462 370.215625 
L 691.196462 339.65625 
Q 691.196462 337.45625 688.996462 337.45625 
L 507.704431 337.45625 
Q 505.504431 337.45625 505.504431 339.65625 
L 505.504431 370.215625 
Q 505.504431 372.415625 507.704431 372.415625 
z
" style="fill: #ffffff; opacity: 0.8; stroke: #cccccc; stroke-linejoin: miter"/>
    </g>
    <g id="patch_24">
     <path d="M 509.904431 349.870781 
L 531.904431 349.870781 
L 531.904431 342.170781 
L 509.904431 342.170781 
z
" style="fill: #dd8452; stroke: #ffffff; stroke-linejoin: miter"/>
    </g>
    <g id="text_26">
     <!-- OCR Time (Tesseract) -->
     <g style="fill: #262626" transform="translate(540.704431 349.870781) scale(0.11 -0.11)">
      <defs>
       <path id="ArialMT-4f" d="M 309 2231 
Q 309 3372 921 4017 
Q 1534 4663 2503 4663 
Q 3138 4663 3647 4359 
Q 4156 4056 4423 3514 
Q 4691 2972 4691 2284 
Q 4691 1588 4409 1038 
Q 4128 488 3612 205 
Q 3097 -78 2500 -78 
Q 1853 -78 1343 234 
Q 834 547 571 1087 
Q 309 1628 309 2231 
z
M 934 2222 
Q 934 1394 1379 917 
Q 1825 441 2497 441 
Q 3181 441 3623 922 
Q 4066 1403 4066 2288 
Q 4066 2847 3877 3264 
Q 3688 3681 3323 3911 
Q 2959 4141 2506 4141 
Q 1863 4141 1398 3698 
Q 934 3256 934 2222 
z
" transform="scale(0.015625)"/>
       <path id="ArialMT-43" d="M 3763 1606 
L 4369 1453 
Q 4178 706 3683 314 
Q 3188 -78 2472 -78 
Q 1731 -78 1267 223 
Q 803 525 561 1097 
Q 319 1669 319 2325 
Q 319 3041 592 3573 
Q 866 4106 1370 4382 
Q 1875 4659 2481 4659 
Q 3169 4659 3637 4309 
Q 4106 3959 4291 3325 
L 3694 3184 
Q 3534 3684 3231 3912 
Q 2928 4141 2469 4141 
Q 1941 4141 1586 3887 
Q 1231 3634 1087 3207 
Q 944 2781 944 2328 
Q 944 1744 1114 1308 
Q 1284 872 1643 656 
Q 2003 441 2422 441 
Q 2931 441 3284 734 
Q 3638 1028 3763 1606 
z
" transform="scale(0.015625)"/>
       <path id="ArialMT-52" d="M 503 0 
L 503 4581 
L 2534 4581 
Q 3147 4581 3465 4457 
Q 3784 4334 3975 4021 
Q 4166 3709 4166 3331 
Q 4166 2844 3850 2509 
Q 3534 2175 2875 2084 
Q 3116 1969 3241 1856 
Q 3506 1613 3744 1247 
L 4541 0 
L 3778 0 
L 3172 953 
Q 2906 1366 2734 1584 
Q 2563 1803 2427 1890 
Q 2291 1978 2150 2013 
Q 2047 2034 1813 2034 
L 1109 2034 
L 1109 0 
L 503 0 
z
M 1109 2559 
L 2413 2559 
Q 2828 2559 3062 2645 
Q 3297 2731 3419 2920 
Q 3541 3109 3541 3331 
Q 3541 3656 3305 3865 
Q 3069 4075 2559 4075 
L 1109 4075 
L 1109 2559 
z
" transform="scale(0.015625)"/>
       <path id="ArialMT-72" d="M 416 0 
L 416 3319 
L 922 3319 
L 922 2816 
Q 1116 3169 1280 3281 
Q 1444 3394 1641 3394 
Q 1925 3394 2219 3213 
L 2025 2691 
Q 1819 2813 1613 2813 
Q 1428 2813 1281 2702 
Q 1134 2591 1072 2394 
Q 978 2094 978 1738 
L 978 0 
L 416 0 
z
" transform="scale(0.015625)"/>
       <path id="ArialMT-74" d="M 1650 503 
L 1731 6 
Q 1494 -44 1306 -44 
Q 1000 -44 831 53 
Q 663 150 594 308 
Q 525 466 525 972 
L 525 2881 
L 113 2881 
L 113 3319 
L 525 3319 
L 525 4141 
L 1084 4478 
L 1084 3319 
L 1650 3319 
L 1650 2881 
L 1084 2881 
L 1084 941 
Q 1084 700 1114 631 
Q 1144 563 1211 522 
Q 1278 481 1403 481 
Q 1497 481 1650 503 
z
" transform="scale(0.015625)"/>
      </defs>
      <use xlink:href="#ArialMT-4f"/>
      <use xlink:href="#ArialMT-43" transform="translate(77.783203 0)"/>
      <use xlink:href="#ArialMT-52" transform="translate(150 0)"/>
      <use xlink:href="#ArialMT-20" transform="translate(222.216797 0)"/>
      <use xlink:href="#ArialMT-54" transform="translate(248.25 0)"/>
      <use xlink:href="#ArialMT-69" transform="translate(305.583984 0)"/>
      <use xlink:href="#ArialMT-6d" transform="translate(327.800781 0)"/>
      <use xlink:href="#ArialMT-65" transform="translate(411.101562 0)"/>
      <use xlink:href="#ArialMT-20" transform="translate(466.716797 0)"/>
      <use xlink:href="#ArialMT-28" transform="translate(494.5 0)"/>
      <use xlink:href="#ArialMT-54" transform="translate(527.800781 0)"/>
      <use xlink:href="#ArialMT-65" transform="translate(577.759766 0)"/>
      <use xlink:href="#ArialMT-73" transform="translate(633.375 0)"/>
      <use xlink:href="#ArialMT-73" transform="translate(683.375 0)"/>
      <use xlink:href="#ArialMT-65" transform="translate(733.375 0)"/>
      <use xlink:href="#ArialMT-72" transform="translate(788.990234 0)"/>
      <use xlink:href="#ArialMT-61" transform="translate(822.291016 0)"/>
      <use xlink:href="#ArialMT-63" transform="translate(877.90625 0)"/>
      <use xlink:href="#ArialMT-74" transform="translate(927.90625 0)"/>
      <use xlink:href="#ArialMT-29" transform="translate(955.689453 0)"/>
     </g>
    </g>
    <g id="patch_25">
     <path d="M 509.904431 365.700469 
L 531.904431 365.700469 
L 531.904431 358.000469 
L 509.904431 358.000469 
z
" style="fill: #4c72b0; stroke: #ffffff; stroke-linejoin: miter"/>
    </g>
    <g id="text_27">
     <!-- LLM/VLM Time (Llama/Qwen) -->
     <g style="fill: #262626" transform="translate(540.704431 365.700469) scale(0.11 -0.11)">
      <defs>
       <path id="ArialMT-4c" d="M 469 0 
L 469 4581 
L 1075 4581 
L 1075 541 
L 3331 541 
L 3331 0 
L 469 0 
z
" transform="scale(0.015625)"/>
       <path id="ArialMT-4d" d="M 475 0 
L 475 4581 
L 1388 4581 
L 2472 1338 
Q 2622 884 2691 659 
Q 2769 909 2934 1394 
L 4031 4581 
L 4847 4581 
L 4847 0 
L 4263 0 
L 4263 3834 
L 2931 0 
L 2384 0 
L 1059 3900 
L 1059 0 
L 475 0 
z
" transform="scale(0.015625)"/>
       <path id="ArialMT-2f" d="M 0 -78 
L 1328 4659 
L 1778 4659 
L 453 -78 
L 0 -78 
z
" transform="scale(0.015625)"/>
       <path id="ArialMT-56" d="M 1803 0 
L 28 4581 
L 684 4581 
L 1875 1253 
Q 2019 853 2116 503 
Q 2222 878 2363 1253 
L 3600 4581 
L 4219 4581 
L 2425 0 
L 1803 0 
z
" transform="scale(0.015625)"/>
       <path id="ArialMT-51" d="M 3966 491 
Q 4388 200 4744 66 
L 4566 -356 
Q 4072 -178 3581 206 
Q 3072 -78 2456 -78 
Q 1834 -78 1328 222 
Q 822 522 548 1065 
Q 275 1609 275 2291 
Q 275 2969 550 3525 
Q 825 4081 1333 4372 
Q 1841 4663 2469 4663 
Q 3103 4663 3612 4361 
Q 4122 4059 4389 3517 
Q 4656 2975 4656 2294 
Q 4656 1728 4484 1276 
Q 4313 825 3966 491 
z
M 2631 1266 
Q 3156 1119 3497 828 
Q 4031 1316 4031 2294 
Q 4031 2850 3842 3265 
Q 3653 3681 3289 3911 
Q 2925 4141 2472 4141 
Q 1794 4141 1347 3677 
Q 900 3213 900 2291 
Q 900 1397 1342 919 
Q 1784 441 2472 441 
Q 2797 441 3084 563 
Q 2800 747 2484 825 
L 2631 1266 
z
" transform="scale(0.015625)"/>
      </defs>
      <use xlink:href="#ArialMT-4c"/>
      <use xlink:href="#ArialMT-4c" transform="translate(55.615234 0)"/>
      <use xlink:href="#ArialMT-4d" transform="translate(111.230469 0)"/>
      <use xlink:href="#ArialMT-2f" transform="translate(194.53125 0)"/>
      <use xlink:href="#ArialMT-56" transform="translate(222.314453 0)"/>
      <use xlink:href="#ArialMT-4c" transform="translate(289.013672 0)"/>
      <use xlink:href="#ArialMT-4d" transform="translate(344.628906 0)"/>
      <use xlink:href="#ArialMT-20" transform="translate(427.929688 0)"/>
      <use xlink:href="#ArialMT-54" transform="translate(453.962891 0)"/>
      <use xlink:href="#ArialMT-69" transform="translate(511.296875 0)"/>
      <use xlink:href="#ArialMT-6d" transform="translate(533.513672 0)"/>
      <use xlink:href="#ArialMT-65" transform="translate(616.814453 0)"/>
      <use xlink:href="#ArialMT-20" transform="translate(672.429688 0)"/>
      <use xlink:href="#ArialMT-28" transform="translate(700.212891 0)"/>
      <use xlink:href="#ArialMT-4c" transform="translate(733.513672 0)"/>
      <use xlink:href="#ArialMT-6c" transform="translate(789.128906 0)"/>
      <use xlink:href="#ArialMT-61" transform="translate(811.345703 0)"/>
      <use xlink:href="#ArialMT-6d" transform="translate(866.960938 0)"/>
      <use xlink:href="#ArialMT-61" transform="translate(950.261719 0)"/>
      <use xlink:href="#ArialMT-2f" transform="translate(1005.876953 0)"/>
      <use xlink:href="#ArialMT-51" transform="translate(1033.660156 0)"/>
      <use xlink:href="#ArialMT-77" transform="translate(1111.443359 0)"/>
      <use xlink:href="#ArialMT-65" transform="translate(1183.660156 0)"/>
      <use xlink:href="#ArialMT-6e" transform="translate(1239.275391 0)"/>
      <use xlink:href="#ArialMT-29" transform="translate(1294.890625 0)"/>
     </g>
    </g>
   </g>
  </g>
 </g>
 <defs>
  <clipPath id="p8126a469de">
   <rect x="85.809219" y="21.935625" width="610.887243" height="355.98"/>
  </clipPath>
 </defs>
</svg>
